<svg width="1624" height="923" viewBox="0 0 1624 923" fill="none" xmlns="http://www.w3.org/2000/svg">
<path d="M424.448 65.2136C424.448 71.1046 429.224 75.8802 435.115 75.8802C441.006 75.8802 445.781 71.1046 445.781 65.2136C445.781 59.3225 441.006 54.5469 435.115 54.5469C429.224 54.5469 424.448 59.3225 424.448 65.2136ZM1347.61 89.2136L1347.69 87.2151L1346.98 87.1873L1346.4 87.6205L1347.61 89.2136ZM1175.95 912.214C1175.95 918.105 1180.72 922.88 1186.61 922.88C1192.51 922.88 1197.28 918.105 1197.28 912.214C1197.28 906.322 1192.51 901.547 1186.61 901.547C1180.72 901.547 1175.95 906.322 1175.95 912.214ZM435.115 65.2136L435.493 63.2497C408.157 57.9854 387.532 62.2755 372.103 74.0535C356.746 85.7765 346.861 104.675 340.429 127.962C327.582 174.472 328.208 239.716 327.802 304.076C327.395 368.682 325.951 432.379 309.283 476.539C300.972 498.557 288.954 515.492 271.592 525.309C254.242 535.119 231.229 538.003 200.544 531.26L200.115 533.214L199.685 535.167C231.001 542.049 255.097 539.23 273.561 528.79C292.013 518.357 304.515 500.495 313.025 477.951C329.997 432.985 331.397 368.495 331.802 304.101C332.209 239.461 331.616 174.893 344.285 129.027C350.61 106.127 360.167 88.1975 374.53 77.233C388.822 66.3235 408.198 62.0667 434.736 67.1775L435.115 65.2136ZM200.115 533.214L200.544 531.26C138.032 517.523 92.4891 530.783 60.7521 559.696C29.113 588.52 11.4879 632.636 4.13824 680.095C-3.21599 727.583 -0.323923 778.664 9.30349 821.72C14.118 843.252 20.6272 862.824 28.4129 878.962C36.1854 895.074 45.2951 907.9 55.3826 915.789L56.6147 914.214L57.8467 912.638C48.4342 905.277 39.6533 893.056 32.0156 877.224C24.3912 861.42 17.9707 842.151 13.2071 820.847C3.67827 778.232 0.820344 727.656 8.09112 680.707C15.3664 633.729 32.7414 590.626 63.446 562.653C94.0527 534.769 138.198 521.655 199.685 535.167L200.115 533.214ZM56.6147 914.214L55.3826 915.789C66.1264 924.191 81.7529 921.918 100.062 913.095C118.53 904.196 140.562 888.247 164.911 867.727C213.633 826.668 272.1 766.9 330.604 707.365C389.158 647.779 447.75 588.427 496.847 548.023C521.407 527.812 543.471 512.445 561.881 504.144C580.412 495.789 594.509 494.904 603.877 502.285L605.115 500.714L606.353 499.143C595.096 490.273 579.021 492.029 560.237 500.498C541.333 509.021 518.94 524.662 494.305 544.935C445.011 585.501 386.259 645.023 327.751 704.562C269.192 764.152 210.878 823.759 162.334 864.669C138.05 885.133 116.328 900.817 98.3256 909.492C80.1639 918.244 66.603 919.486 57.8467 912.638L56.6147 914.214ZM605.115 500.714L603.877 502.285C614.845 510.926 628.439 512.113 643.443 507.771C658.396 503.445 674.953 493.585 692.259 479.81C726.891 452.242 765.03 408.578 800.045 360.389C835.075 312.181 867.06 259.33 889.36 213.304C900.509 190.294 909.257 168.949 914.75 150.716C920.22 132.558 922.546 117.222 920.583 106.358L918.615 106.714L916.647 107.069C918.433 116.956 916.353 131.526 910.92 149.562C905.508 167.525 896.854 188.665 885.76 211.56C863.576 257.347 831.718 309.996 796.809 358.038C761.887 406.099 723.994 449.435 689.768 476.68C672.644 490.311 656.564 499.811 642.331 503.929C628.15 508.033 616.01 506.751 606.353 499.143L605.115 500.714ZM918.615 106.714L920.583 106.358C917.023 86.6605 927.897 68.3781 946.826 52.6679C965.715 36.991 992.226 24.2438 1018.8 15.7256C1045.38 7.20353 1071.79 2.99085 1090.41 4.20524C1099.77 4.8156 1106.84 6.77903 1111.03 9.95278C1113.08 11.5078 1114.41 13.3223 1115.03 15.4044C1115.67 17.4963 1115.65 20.0384 1114.7 23.1286L1116.61 23.7136L1118.53 24.2986C1119.65 20.6329 1119.77 17.2637 1118.86 14.2501C1117.95 11.2266 1116.06 8.74136 1113.44 6.76393C1108.31 2.8727 1100.27 0.839923 1090.67 0.213719C1071.37 -1.04502 1044.43 3.30773 1017.58 11.9165C990.71 20.5292 963.684 33.4782 944.271 49.5899C924.899 65.6683 912.706 85.2667 916.647 107.069L918.615 106.714ZM1116.61 23.7136L1114.7 23.1286C1112.44 30.5309 1113.86 37.8157 1117.97 44.6755C1122.05 51.4875 1128.8 57.9346 1137.35 63.8854C1154.47 75.7919 1179.28 86.0295 1206.08 93.3134C1232.91 100.603 1261.91 104.976 1287.47 105.063C1312.92 105.15 1335.4 100.993 1348.82 90.8067L1347.61 89.2136L1346.4 87.6205C1334.09 96.9706 1312.75 101.15 1287.48 101.063C1262.32 100.977 1233.68 96.667 1207.13 89.4534C1180.56 82.234 1156.24 72.1484 1139.64 60.6016C1131.33 54.8258 1125.08 48.7638 1121.4 42.6204C1117.75 36.5248 1116.66 30.4079 1118.53 24.2986L1116.61 23.7136ZM1347.61 89.2136C1347.54 91.2121 1347.54 91.2121 1347.54 91.2122C1347.54 91.2124 1347.55 91.2126 1347.55 91.2128C1347.57 91.2133 1347.59 91.2141 1347.61 91.2152C1347.67 91.2174 1347.75 91.2207 1347.85 91.2253C1348.07 91.2344 1348.38 91.2485 1348.8 91.2683C1349.64 91.308 1350.89 91.3703 1352.5 91.4612C1355.72 91.6428 1360.42 91.9383 1366.32 92.3932C1378.11 93.3031 1394.68 94.8503 1413.76 97.3991C1451.96 102.501 1500.13 111.6 1540.31 127.572C1580.65 143.608 1612.16 166.261 1618.39 198.02C1624.61 229.73 1605.85 271.767 1542.3 327.206L1543.61 328.714L1544.93 330.221C1608.62 274.66 1628.99 231.259 1622.32 197.25C1615.66 163.291 1582.26 139.944 1541.79 123.855C1501.16 107.703 1452.61 98.5514 1414.29 93.4343C1395.12 90.8737 1378.48 89.3194 1366.63 88.4051C1360.7 87.9479 1355.97 87.6506 1352.72 87.4675C1351.1 87.3759 1349.84 87.313 1348.99 87.2728C1348.57 87.2527 1348.24 87.2383 1348.03 87.229C1347.92 87.2243 1347.83 87.2208 1347.78 87.2186C1347.75 87.2174 1347.73 87.2166 1347.71 87.216C1347.71 87.2157 1347.7 87.2155 1347.7 87.2153C1347.69 87.2152 1347.69 87.2151 1347.61 89.2136ZM1543.61 328.714L1542.3 327.206C1415.13 438.139 1312.49 498.84 1270.37 529.662C1265.11 533.514 1260.76 536.923 1257.42 539.919C1254.11 542.884 1251.66 545.569 1250.34 547.985C1249.67 549.208 1249.23 550.481 1249.2 551.769C1249.18 553.111 1249.61 554.341 1250.46 555.385C1252.05 557.324 1254.96 558.426 1258.54 559.122C1265.84 560.546 1278.06 560.634 1295.55 559.79C1313.09 558.944 1336.16 557.144 1365.28 554.707L1365.11 552.714L1364.95 550.721C1335.82 553.158 1312.82 554.952 1295.35 555.795C1277.82 556.641 1266.06 556.514 1259.3 555.196C1255.84 554.521 1254.19 553.62 1253.55 552.847C1253.3 552.534 1253.2 552.23 1253.2 551.851C1253.21 551.418 1253.37 550.783 1253.85 549.901C1254.83 548.107 1256.86 545.794 1260.09 542.896C1263.28 540.029 1267.51 536.71 1272.73 532.89C1314.49 502.337 1417.6 441.288 1544.93 330.221L1543.61 328.714ZM1365.11 552.714L1365.28 554.707C1394.28 552.28 1412.69 556.123 1423.12 564.147C1433.35 572.017 1436.39 584.319 1433.55 600.31C1430.71 616.345 1422 635.681 1409.31 656.864C1396.64 678.015 1380.08 700.864 1361.68 723.903C1324.87 769.978 1280.77 816.686 1245.85 851.891C1228.4 869.49 1213.24 884.206 1202.46 894.521C1197.07 899.679 1192.76 903.736 1189.81 906.503C1188.33 907.886 1187.2 908.947 1186.43 909.661C1186.04 910.019 1185.75 910.289 1185.55 910.471C1185.46 910.561 1185.38 910.629 1185.33 910.675C1185.31 910.697 1185.29 910.715 1185.28 910.726C1185.27 910.731 1185.27 910.736 1185.26 910.738C1185.26 910.741 1185.26 910.742 1186.61 912.214C1187.97 913.685 1187.97 913.683 1187.97 913.68C1187.98 913.677 1187.98 913.673 1187.99 913.667C1188 913.655 1188.02 913.637 1188.05 913.614C1188.1 913.568 1188.17 913.499 1188.27 913.407C1188.47 913.224 1188.76 912.952 1189.15 912.592C1189.92 911.874 1191.07 910.809 1192.55 909.421C1195.51 906.646 1199.82 902.58 1205.22 897.412C1216.03 887.077 1231.21 872.336 1248.69 854.708C1283.65 819.46 1327.86 772.636 1364.8 726.399C1383.27 703.282 1399.95 680.279 1412.74 658.92C1425.52 637.594 1434.52 617.761 1437.49 601.008C1440.47 584.209 1437.42 570.102 1425.56 560.977C1413.9 552.007 1394.2 548.272 1364.95 550.721L1365.11 552.714Z" fill="#0F5CDE"/>
</svg>
